<svg  viewBox="0 0 1000 1000">
<g clip-path="url(#clip0_1004_2)">
<path d="M188.15 941.176V1000H566.753V941.176H549.839C521.216 941.176 496.063 936.041 474.379 925.77C453.562 914.566 443.154 888.422 443.154 847.339V162.465C443.154 121.382 453.996 95.2382 475.68 84.0337C496.497 72.8292 521.216 67.2269 549.839 67.2269C623.565 67.2269 657.392 83.0999 687.75 114.846C718.107 146.592 733.286 199.813 733.286 274.51C733.286 347.339 718.975 401.961 690.352 438.375C662.596 474.79 627.468 492.997 551.14 492.997V558.823L726.781 873.95C746.73 909.43 765.812 936.508 784.027 955.182C802.242 972.922 826.094 985.061 855.584 991.597C885.942 997.199 928.009 1000 981.785 1000H1000V941.176H996.097C969.209 941.176 945.356 931.839 924.54 913.165C903.723 894.491 882.039 866.48 859.488 829.131L681.245 525.21C712.47 514.006 742.394 498.133 771.017 477.591C800.507 457.049 824.793 429.972 843.875 396.359C862.957 361.811 872.498 319.795 872.498 270.308C872.498 90.1027 761.042 0 538.13 0H0V184.874H67.6542C71.1237 154.062 80.231 124.65 94.9761 102.241C109.721 78.8983 136.176 67.2269 174.34 67.2269H205.063C233.686 67.2269 258.406 72.8292 279.223 84.0337C300.907 95.2382 311.749 121.382 311.749 162.465V847.339C311.749 888.422 300.907 914.566 279.223 925.77C258.406 936.041 233.686 941.176 205.063 941.176H188.15Z" fill="#232D5B"/>
</g>
<defs>
<clipPath id="clip0_1004_2">
<rect width="1000" height="1000" fill="white"/>
</clipPath>
</defs>
</svg>
